<?xml version="1.0" encoding="utf-8"?>
<!-- Generator: Adobe Illustrator 21.0.0, SVG Export Plug-In . SVG Version: 6.00 Build 0)  -->
<svg version="1.1" id="Layer_1" xmlns="http://www.w3.org/2000/svg" xmlns:xlink="http://www.w3.org/1999/xlink" x="0px" y="0px"
	 viewBox="0 0 490.1 154.4" style="enable-background:new 0 0 490.1 154.4;" xml:space="preserve">
<style type="text/css">
	.st0{fill:#00263A;}
	.st1{fill:#E4002B;}
	.st2{fill:#FFFFFF;}
</style>
<g>
	<g>
		<rect x="405.4" y="133.6" class="st0" width="3.4" height="13.8"/>
		<circle class="st0" cx="407" cy="129.3" r="1.9"/>
		<g>
			<rect x="420.1" y="133.6" class="st0" width="3.4" height="13.8"/>
			<circle class="st0" cx="421.7" cy="129.3" r="1.9"/>
		</g>
		<g>
			<rect x="453.5" y="133.6" class="st0" width="3.4" height="13.8"/>
			<circle class="st0" cx="455.2" cy="129.3" r="1.9"/>
		</g>
		<path class="st0" d="M175.6,129.6h5.8c6,0,10.2,2.8,10.2,8.8c0,6.2-3.8,9-10,9h-5.9V129.6z M181.8,144.7c4.3,0,6.3-2.1,6.3-6
			c0-4.3-2.4-6.4-6.8-6.4H179v12.4H181.8z"/>
		<path class="st0" d="M194.2,140.7c0-5.6,2.8-7.4,6.7-7.4c4,0,5.6,2.6,5.6,6.9v1.2h-9c0,3,1.9,3.5,4.3,3.5c1,0,2.6-0.3,3.7-0.6
			l0.5,2.6c-1.1,0.4-3,0.7-4.9,0.7C197,147.7,194.2,146.1,194.2,140.7 M203.1,139.2c0-2.1-0.8-3.5-2.5-3.5c-1.7,0-2.8,1.2-3,3.5
			H203.1z"/>
		<path class="st0" d="M208.9,147.1l0.4-2.6c1.4,0.2,2.8,0.5,3.9,0.5c2.1,0,2.8-0.7,2.8-1.4c0-2.1-6.9-1.3-6.9-6.1
			c0-2.8,2.5-4.1,5.4-4.1c1.6,0,3.1,0.3,4.1,0.7l-0.6,2.5c-1.1-0.3-2.1-0.5-3.6-0.5c-1.5,0-2,0.7-2,1.3c0,2.2,6.9,1.6,6.9,6.1
			c0,3.5-3.4,4.3-5.7,4.3C211.6,147.7,210.1,147.4,208.9,147.1"/>
		<path class="st0" d="M221.6,143.6c0-3.5,3.1-4.2,5.7-4.2l2.7,0v-1.2c0-1.6-0.9-2-2.9-2c-1.3,0-2.8,0.4-3.8,0.6l-0.7-2.5
			c1.2-0.5,3-1,5.1-1c3.8,0,5.6,1.1,5.6,4.1v6.7c0,0.7,0.6,0.8,1.3,0.9l-0.2,2.6h-0.7c-1.5,0-3.1-0.4-3.4-1.6
			c-0.9,0.7-2.3,1.7-4.3,1.7C223.3,147.6,221.6,146.2,221.6,143.6 M230,144.1v-2.7l-2.5,0.1c-1.6,0-2.6,0.7-2.6,1.8
			c0,1.2,0.9,1.7,1.9,1.7C228,145,229.3,144.3,230,144.1"/>
		<path class="st0" d="M237.7,133.6h3.3v1.8c0.7-0.9,2-2.1,3.7-2.1c0.8,0,1.3,0.1,1.8,0.2l-0.5,2.8c-0.7-0.1-1-0.2-1.8-0.2
			c-1.4,0-2.6,0.8-3.3,1.6v9.6h-3.3V133.6z"/>
		<path class="st0" d="M248.8,133.6h3.3v1.8c0.7-0.9,2-2.1,3.7-2.1c0.8,0,1.3,0.1,1.8,0.2l-0.5,2.8c-0.7-0.1-1-0.2-1.8-0.2
			c-1.4,0-2.6,0.8-3.2,1.6v9.6h-3.3V133.6z"/>
		<path class="st0" d="M258.8,140.6c0-4.6,2.8-7.3,6.9-7.3c4.6,0,6.7,2.7,6.7,7.2c0,4.7-2.9,7.2-6.9,7.2
			C261.2,147.7,258.8,145,258.8,140.6 M268.9,140.5c0-2.3-0.7-4.6-3.4-4.6c-2.7,0-3.4,2.2-3.4,4.6c0,2.5,0.8,4.5,3.4,4.5
			C268.3,145,268.9,143,268.9,140.5"/>
		<rect x="275.6" y="128.4" class="st0" width="3.4" height="19"/>
		<rect x="282.9" y="128.4" class="st0" width="3.3" height="19"/>
		<path class="st0" d="M289.5,140.6c0-4.6,2.8-7.3,6.8-7.3c4.6,0,6.7,2.7,6.7,7.2c0,4.7-2.9,7.2-6.9,7.2
			C291.8,147.7,289.5,145,289.5,140.6 M299.6,140.5c0-2.3-0.7-4.6-3.4-4.6c-2.7,0-3.4,2.2-3.4,4.6c0,2.5,0.8,4.5,3.5,4.5
			C299,145,299.6,143,299.6,140.5"/>
		<path class="st0" d="M305.3,147.1l0.4-2.6c1.4,0.2,2.8,0.5,3.9,0.5c2.1,0,2.8-0.7,2.8-1.4c0-2.1-6.9-1.3-6.9-6.1
			c0-2.8,2.5-4.1,5.4-4.1c1.6,0,3.1,0.3,4.1,0.7l-0.6,2.5c-1.1-0.3-2.1-0.5-3.6-0.5c-1.5,0-2,0.7-2,1.3c0,2.2,6.9,1.6,6.9,6.1
			c0,3.5-3.4,4.3-5.7,4.3C308,147.7,306.5,147.4,305.3,147.1"/>
		<rect x="324.9" y="129.6" class="st0" width="3.4" height="17.8"/>
		<path class="st0" d="M332.6,133.6h3.3v1.5c1-0.7,2.7-1.8,4.6-1.8c4.2,0,4.5,2.5,4.5,5.4v8.7h-3.3v-8.3c0-2.1-0.4-2.8-2.2-2.8
			c-1.4,0-2.7,0.6-3.5,1.1v10.1h-3.3V133.6z"/>
		<path class="st0" d="M348.9,133.6h3.3v1.5c1.1-0.9,2.8-1.8,4.5-1.8c2,0,3.3,0.8,3.8,2.1c1.1-0.9,2.9-2.1,4.8-2.1
			c4.3,0,4.4,3,4.4,5.4v8.7h-3.3v-8.3c0-1.9-0.4-2.8-2.2-2.8c-1.1,0-2.4,0.6-3.3,1.1c0.1,0.4,0.1,0.9,0.1,1.3v8.7h-3.3v-8.3
			c0-2-0.4-2.8-2.1-2.8c-1.1,0-2.4,0.6-3.3,1.1v10h-3.3V133.6z"/>
		<path class="st0" d="M372.9,140.6c0-4.6,2.8-7.3,6.8-7.3c4.6,0,6.7,2.7,6.7,7.2c0,4.7-2.9,7.2-6.9,7.2
			C375.3,147.7,372.9,145,372.9,140.6 M383.1,140.5c0-2.3-0.7-4.6-3.4-4.6c-2.7,0-3.4,2.2-3.4,4.6c0,2.5,0.8,4.5,3.5,4.5
			C382.4,145,383.1,143,383.1,140.5"/>
		<path class="st0" d="M389.7,146.8v-18.4h3.3v16.3c0.6,0.1,1.2,0.3,2.2,0.3c2.5,0,3.8-2.2,3.8-5c0-2.7-0.8-4.2-3.4-4.2
			c-0.8,0-1.6,0.2-2.1,0.4l-0.2-2.3c0.9-0.3,2-0.6,2.9-0.6c3.9,0,6.2,2,6.2,6.5c0,5.9-3.5,7.8-7.3,7.8
			C392.2,147.6,390.9,147.2,389.7,146.8"/>
		<rect x="412.7" y="128.4" class="st0" width="3.3" height="19"/>
		<path class="st0" d="M426.4,143.6c0-3.5,3.1-4.2,5.7-4.2l2.7,0v-1.2c0-1.6-0.9-2-2.9-2c-1.3,0-2.8,0.4-3.8,0.6l-0.7-2.5
			c1.2-0.5,3-1,5.1-1c3.8,0,5.6,1.1,5.6,4.1v6.7c0,0.7,0.6,0.8,1.3,0.9l-0.2,2.6h-0.7c-1.5,0-3-0.4-3.3-1.6
			c-0.9,0.7-2.3,1.7-4.3,1.7C428,147.6,426.4,146.2,426.4,143.6 M434.8,144.1v-2.7l-2.5,0.1c-1.6,0-2.6,0.7-2.6,1.8
			c0,1.2,0.9,1.7,1.9,1.7C432.7,145,434,144.3,434.8,144.1"/>
		<path class="st0" d="M442.5,133.6h3.3v1.8c0.7-0.9,2-2.1,3.7-2.1c0.8,0,1.3,0.1,1.8,0.2l-0.5,2.8c-0.7-0.1-1-0.2-1.8-0.2
			c-1.4,0-2.6,0.8-3.3,1.6v9.6h-3.3V133.6z"/>
		<path class="st0" d="M460,140.6c0-4.6,2.8-7.3,6.8-7.3c4.6,0,6.7,2.7,6.7,7.2c0,4.7-2.9,7.2-6.9,7.2
			C462.4,147.7,460,145,460,140.6 M470.2,140.5c0-2.3-0.7-4.6-3.4-4.6c-2.7,0-3.4,2.2-3.4,4.6c0,2.5,0.8,4.5,3.5,4.5
			C469.5,145,470.2,143,470.2,140.5"/>
		<path class="st0" d="M475.9,147.1l0.4-2.6c1.4,0.2,2.8,0.5,3.9,0.5c2.1,0,2.8-0.7,2.8-1.4c0-2.1-6.9-1.3-6.9-6.1
			c0-2.8,2.5-4.1,5.4-4.1c1.6,0,3.1,0.3,4.1,0.7l-0.6,2.5c-1.1-0.3-2.1-0.5-3.6-0.5c-1.5,0-2,0.7-2,1.3c0,2.2,6.9,1.6,6.9,6.1
			c0,3.5-3.4,4.3-5.7,4.3C478.6,147.7,477,147.4,475.9,147.1"/>
	</g>
	<g>
		<path class="st0" d="M198,53.5c-16.4,0-25.1-7.9-25.1-22.9c0-15.6,8.4-23.5,24.8-23.5c6.8,0,10.6,1.2,13.7,2.6l-2.6,7.2
			c-4.2-1.1-6.1-1.5-11-1.6l-0.3,0c-9,0-14.3,5.5-14.3,14.7c0,9.6,6,15.3,16,15.3c4.1,0,6.8-0.3,10.4-1.2l2.1,7.4
			C207.5,53,203.7,53.5,198,53.5"/>
		<path class="st0" d="M217.1,52.9V18.2h9.9v5.7l0.9-1.1c1.2-1.6,4.5-5.3,8.8-5.3c1.9,0,3.1,0.1,4.3,0.4l-1.3,8
			c-1.8-0.3-2.5-0.3-4.4-0.3c-3.4,0-6.8,1.7-8.3,3.2L227,29v23.8H217.1z"/>
		<path class="st0" d="M261.5,53.6c-13.2,0-18.8-5.3-18.8-17.6c0-12.8,5.7-18.7,17.9-18.7c10,0,15,5.9,15,17.6v3.4h-23.1l0,0.5
			c0,2,0.5,3.7,1.7,4.8c2.1,2.1,5.8,2.4,8.9,2.4c2.1,0,5.5-0.6,8.8-1.2l1-0.2l1.5,7.4C270.7,53,265.9,53.6,261.5,53.6 M259.7,24.1
			c-4.1,0-6.6,2.9-6.8,7.8l0,0.5h12.6l0-0.5c0.1-2.7-0.6-4.9-1.9-6.3C262.5,24.6,261.2,24.1,259.7,24.1"/>
		<path class="st0" d="M291.5,53.5c-7.7,0-11.8-3.5-11.8-10.3c0-6.9,5-10.3,14.8-10.3h6.7v-2.7c0-3.8-2.8-4.5-7-4.5
			c-3.4,0-7.1,0.7-10.3,1.5l-1.9-7c3.2-1.2,7.9-2.7,13.8-2.7c10.8,0,15,3,15,10.7v15.9c0,1.7,1.8,1.9,3.2,2l-0.3,7.3
			c-0.7,0-1.4,0-2.1,0c-5.5,0-8.7-1.2-9.4-3.4l-0.2-0.7l-0.6,0.4C299.6,51,295.8,53.5,291.5,53.5 M295.4,38.3c-3.9,0.1-6,1.6-6,4.2
			c0,2.4,2.3,3.5,4.5,3.5c2.2,0,4.8-0.6,7-1.3l0.4-0.1v-6.5L295.4,38.3z"/>
		<path class="st0" d="M320.5,52.9V18.2h9.9v5.7l0.9-1.1c1.2-1.6,4.5-5.3,8.8-5.3c1.9,0,3.1,0.1,4.3,0.4l-1.3,8
			c-1.8-0.3-2.5-0.3-4.4-0.3c-3.4,0-6.8,1.7-8.3,3.2l-0.1,0.1v23.8H320.5z"/>
	</g>
	<g>
		<path class="st0" d="M198,112.2c-16.4,0-25.1-7.9-25.1-22.9c0-15.6,8.4-23.5,24.8-23.5c6.8,0,10.6,1.2,13.7,2.6l-2.6,7.2
			c-4.2-1.1-6.1-1.5-11-1.6l-0.3,0c-9,0-14.3,5.5-14.3,14.7c0,9.6,6,15.3,16,15.3c4.1,0,6.8-0.3,10.4-1.2l2.1,7.4
			C207.5,111.6,203.7,112.2,198,112.2"/>
		<path class="st0" d="M280.4,111.5V90.6c0-4.6-1.3-6.2-5-6.2c-2.6,0-5.7,1.1-7.6,2.1l-0.3,0.2l0,0.4c0.1,0.9,0.1,1.7,0.1,2.7v21.9
			h-9.8V90.6c0-5.3-1.5-6.1-4.9-6.1c-2.5,0-5.5,0.7-7.5,1.8l-0.3,0.1v25.1h-9.9V76.9h9.9V81l0.8-0.6c1.8-1.3,6.4-4.5,11.2-4.5
			c4.7,0,8.1,1.8,9.5,5.1l0.3,0.6l0.5-0.5c2.7-2.4,7.4-5.3,11.9-5.3c4.9,0,8,1.5,9.6,4.5c1.4,2.6,1.4,6,1.4,9v22.1H280.4z"/>
		<path class="st0" d="M333.1,112.3c-13.2,0-18.8-5.3-18.8-17.6C314.3,82,320,76,332.2,76c10,0,15,5.9,15,17.6V97h-23.1l0,0.5
			c0,2,0.5,3.7,1.7,4.8c2.1,2.1,5.8,2.4,8.9,2.4c2.1,0,5.5-0.6,8.8-1.2l1-0.2l1.4,7.4C342.3,111.7,337.5,112.3,333.1,112.3
			 M331.3,82.7c-4.1,0-6.6,2.9-6.8,7.8l0,0.5h12.6l0-0.5c0.1-2.7-0.6-4.9-1.9-6.3C334.2,83.3,332.8,82.7,331.3,82.7"/>
		<path class="st0" d="M377.4,111.5V90.6c0-4.9-1.1-6.2-5.3-6.2c-3.6,0-6.7,1.2-8.2,1.9l-0.3,0.1v25.1h-9.9V76.9h9.9V81l0.8-0.6
			c1.4-1,6.2-4.4,11.3-4.4c10.6,0,11.4,5.7,11.4,13.7v21.8H377.4z"/>
		<path class="st0" d="M410.2,112.2c-6.2,0-13.3,0-13.3-11.3v-17h-5.2v-7h5.2v-7.3h9.8v7.3h11v7h-11v16.9c0,3.1,1.6,3.3,4.4,3.3
			c2,0,5.9-0.5,7.3-0.7l0.9,7.6c-2.5,0.7-5.7,1.1-8.1,1.1L410.2,112.2z"/>
		<path class="st0" d="M439.7,112.3c-11.2,0-17.6-6.5-17.6-17.8c0-11.4,7-18.6,18.2-18.6c11.7,0,17.8,6.3,17.8,18.2
			C458.1,105.4,451,112.3,439.7,112.3 M440.1,83.6c-5.4,0-8,3.5-8,10.7c0,4.4,0.8,10.3,8.1,10.3c6.9,0,7.8-5.3,7.8-10.4
			C448,89.6,447.2,83.6,440.1,83.6"/>
		<path class="st0" d="M474.8,112.3c-5,0-9-0.4-12.4-1.4l1-7.3c4.3,0.6,7.9,0.9,10.3,0.9c4.5,0,6.6-0.9,6.6-3c0-1.7-2.3-2.4-5.5-3.3
			c-5.2-1.5-12.4-3.6-12.4-11.5c0-8,7.8-10.8,14.5-10.8c4,0,7.7,0.6,11.4,1.9l-1.6,7c-3.1-0.7-5.8-1.2-9.5-1.2c-4.6,0-4.9,2-4.9,2.6
			c0,1.8,2.6,2.7,5.8,3.7c5.1,1.7,12,3.9,12,11.1C490.1,109.4,481.9,112.3,474.8,112.3"/>
		<g>
			<rect x="217.3" y="76.9" class="st0" width="9.8" height="34.6"/>
			<path class="st0" d="M222.2,71.2c-2.8,0-5.1-2.3-5.1-5.1c0-2.8,2.3-5.1,5.1-5.1c2.8,0,5.1,2.3,5.1,5.1
				C227.3,69,225,71.2,222.2,71.2"/>
		</g>
		<g>
			<rect x="298.4" y="76.9" class="st0" width="9.8" height="34.6"/>
			<path class="st0" d="M303.3,71.2c-2.8,0-5.1-2.3-5.1-5.1c0-2.8,2.3-5.1,5.1-5.1s5.1,2.3,5.1,5.1C308.4,69,306.1,71.2,303.3,71.2"
				/>
		</g>
	</g>
	<path class="st1" d="M77.2,0C34.6,0,0,34.6,0,77.2c0,42.7,34.6,77.2,77.2,77.2c42.7,0,77.2-34.6,77.2-77.2
		C154.4,34.6,119.9,0,77.2,0z M74,106c0,1.9-1.6,3.5-3.5,3.5H29.9c-1.9,0-3.5-1.6-3.5-3.5V66.4c0-1.9,1.4-4.3,3-5.3l41.5-24
		c1.7-1,3-0.2,3,1.8V106z M128.1,106c0,1.9-1.6,3.5-3.5,3.5H84c-1.9,0-3.5-1.6-3.5-3.5V38.9c0-1.9,1.4-2.7,3-1.8l41.5,24
		c1.7,1,3.1,3.4,3.1,5.3V106z"/>
	<path class="st2" d="M128.1,66.4V106c0,1.9-1.6,3.5-3.5,3.5H84c-1.9,0-3.5-1.6-3.5-3.5V38.9c0-1.9,1.4-2.7,3-1.8l41.5,24
		C126.7,62.1,128.1,64.5,128.1,66.4z"/>
	<path class="st2" d="M74,38.9V106c0,1.9-1.6,3.5-3.5,3.5H29.9c-1.9,0-3.5-1.6-3.5-3.5V66.4c0-1.9,1.4-4.3,3-5.3l41.5-24
		C72.6,36.2,74,37,74,38.9z"/>
</g>
</svg>
