<?xml version="1.0" encoding="UTF-8"?>
<svg width="227" height="54" viewBox="0 0 227 54" fill="none" xmlns="http://www.w3.org/2000/svg">
<g clip-path="url(#clip0_846_5640)">
<path d="M34.0394 41.623L40.8196 38.4348V5.61904L34.0394 2.81104V41.623Z" fill="#BFB7AC"/>
<path d="M30.5984 43.2693V36.2385L34.0062 34.8345L40.8207 38.4687L30.5984 43.2693Z" fill="#D9D4CD"/>
<path d="M13.5947 42.7538L6.78015 45.5618V5.61904L13.5947 2.81104V42.7538Z" fill="#FEDE88"/>
<path d="M40.8197 5.61904L47.6343 2.81104V42.7538L23.8171 54.003V14.0906L30.6317 11.2448V43.203L40.8197 38.437V5.61904Z" fill="#806F59"/>
<path d="M17.0369 11.2458L23.8171 14.0916V54.003L17.0369 51.195V35.6906L6.81451 30.0681V45.565L0.0343018 42.7538V2.81104L6.81451 5.61904V20.8794L17.0369 26.4339V11.2458Z" fill="#FEBD11"/>
<path d="M17.0369 11.2763L23.8514 14.0843L30.6316 11.2763L23.8514 8.46826L17.0369 11.2763Z" fill="#FFEBB7"/>
<path d="M0 2.808L6.81455 5.616L13.5948 2.808L6.81455 0L0 2.808Z" fill="#FFEBB7"/>
<path d="M17.0369 26.4339V19.4733L13.5948 18.0337L6.81458 20.8795L17.0369 26.4339Z" fill="#FFEBB7"/>
<path d="M34.0394 2.808L40.8196 5.616L47.6342 2.808L40.8196 0L34.0394 2.808Z" fill="#FFEBB7"/>
<path fill-rule="evenodd" clip-rule="evenodd" d="M56.5 21.0862V13.7832H54.246V31.9542H56.5V23.2062H65.1209V31.9542H67.3749V13.7832H65.1209V21.0862H56.5Z" fill="#FEBD11"/>
<path d="M72.7812 13.7832H70.5326V31.9542H72.7812V13.7832Z" fill="#FEBD11"/>
<path fill-rule="evenodd" clip-rule="evenodd" d="M81.0329 15.8752H85.2918V13.7832H74.4856V15.8752H78.7445V31.9542H81.0329V15.8752Z" fill="#FEBD11"/>
<path fill-rule="evenodd" clip-rule="evenodd" d="M95.2706 13.3716C93.4048 13.3733 91.5814 13.9319 90.0311 14.9768C88.4809 16.0216 87.2736 17.5057 86.5619 19.2412C85.8502 20.9767 85.6662 22.8857 86.0332 24.7265C86.4001 26.5673 87.3015 28.2572 88.6232 29.5823C89.945 30.9075 91.6277 31.8083 93.4585 32.1708C95.2892 32.5333 97.1857 32.3412 98.9079 31.6188C100.63 30.8963 102.101 29.6761 103.133 28.1124C104.166 26.5488 104.715 24.712 104.709 22.8345C104.683 20.327 103.679 17.9301 101.914 16.1601C100.149 14.3901 97.7628 13.3887 95.2706 13.3716ZM95.2706 30.2055C93.3461 30.1859 91.508 29.3987 90.1598 28.0167C88.8115 26.6348 88.0633 24.771 88.0793 22.8345C88.0677 21.8748 88.2455 20.9223 88.6025 20.0322C88.9594 19.1421 89.4884 18.3322 90.1588 17.6493C90.8292 16.9665 91.6276 16.4244 92.5077 16.0544C93.3879 15.6844 94.3323 15.4938 95.2862 15.4938C96.2401 15.4938 97.1845 15.6844 98.0647 16.0544C98.9448 16.4244 99.7432 16.9665 100.414 17.6493C101.084 18.3322 101.613 19.1421 101.97 20.0322C102.327 20.9223 102.505 21.8748 102.493 22.8345C102.496 24.7726 101.739 26.6335 100.386 28.0135C99.0341 29.3934 97.1954 30.1811 95.2695 30.2055" fill="#FEBD11"/>
<path fill-rule="evenodd" clip-rule="evenodd" d="M116.703 16.1479C116.263 15.2976 115.596 14.5874 114.778 14.0971C113.959 13.6068 113.021 13.3558 112.068 13.3723C109.342 13.3723 106.753 15.1554 106.753 18.1038C106.753 20.6062 108.627 21.8071 110.672 22.6981L111.933 23.2468C113.467 23.8948 115.034 24.7588 115.034 26.6758C115.048 27.129 114.972 27.5805 114.811 28.0041C114.651 28.4277 114.408 28.815 114.097 29.1435C113.787 29.472 113.415 29.7352 113.002 29.9178C112.59 30.1005 112.145 30.1989 111.695 30.2074C111.24 30.2219 110.787 30.1436 110.364 29.9772C109.94 29.8109 109.554 29.56 109.229 29.2396C108.905 28.9192 108.648 28.5359 108.474 28.1129C108.301 27.69 108.214 27.236 108.219 26.7784L105.936 27.2579C106.077 28.6502 106.727 29.9403 107.759 30.8781C108.792 31.8159 110.133 32.3347 111.524 32.3339C112.276 32.3618 113.026 32.2355 113.728 31.9629C114.43 31.6902 115.07 31.2768 115.609 30.7478C116.147 30.2187 116.573 29.585 116.861 28.8853C117.149 28.1855 117.292 27.4341 117.282 26.6769C117.282 23.6259 115.341 22.2197 112.818 21.225L111.524 20.7109C110.399 20.2649 109.003 19.5111 109.003 18.1049C109.076 17.3633 109.433 16.6795 110 16.1991C110.566 15.7187 111.296 15.4795 112.035 15.5323C112.626 15.5091 113.212 15.6546 113.725 15.9519C114.238 16.2493 114.656 16.6864 114.933 17.2128L116.703 16.1479Z" fill="#FEBD11"/>
<path fill-rule="evenodd" clip-rule="evenodd" d="M130.877 24.7549C130.877 26.3663 130.877 28.1148 129.957 29.3492C129.439 29.9073 128.81 30.3508 128.112 30.6518C127.414 30.9528 126.662 31.1047 125.902 31.0978C125.146 31.1157 124.396 30.9686 123.702 30.6668C123.008 30.365 122.387 29.9155 121.882 29.3492C120.962 28.1148 120.962 26.4008 120.962 24.7549V13.7832H119.804V25.0973C119.804 26.9484 119.804 28.5263 121.031 30.0653C121.662 30.7367 122.422 31.2715 123.266 31.637C124.11 32.0025 125.019 32.191 125.937 32.191C126.856 32.191 127.765 32.0025 128.608 31.637C129.452 31.2715 130.213 30.7367 130.844 30.0653C132.071 28.5533 132.071 26.9452 132.071 25.0973V13.7832H130.913V24.7549H130.877Z" fill="#806F59"/>
<path fill-rule="evenodd" clip-rule="evenodd" d="M138.783 23.3486C141.782 23.3832 143.962 21.7718 143.962 18.5826C143.996 17.8328 143.85 17.0858 143.536 16.4053C143.221 15.7247 142.748 15.1308 142.156 14.6741C140.919 13.9248 139.474 13.6 138.038 13.7485H135.784V31.9195H136.943V23.3486H137.522L143.417 31.9541H144.711L138.783 23.3486ZM136.909 22.2514V14.8804H137.661C138.756 14.7924 139.858 14.9325 140.898 15.2918C141.505 15.5906 142.012 16.0613 142.357 16.6461C142.702 17.2308 142.87 17.9042 142.84 18.5837C142.855 19.1259 142.745 19.6643 142.521 20.1575C142.297 20.6508 141.963 21.0859 141.546 21.4295C140.642 22.0946 139.525 22.4 138.411 22.287H136.908L136.909 22.2514Z" fill="#806F59"/>
<path fill-rule="evenodd" clip-rule="evenodd" d="M148.596 23.109H151.117C152.405 23.0083 153.7 23.2079 154.899 23.6922C155.485 24.0025 155.971 24.4728 156.303 25.0491C156.634 25.6253 156.797 26.284 156.773 26.9494C156.774 27.5898 156.615 28.2201 156.311 28.783C156.008 29.3459 155.569 29.8234 155.036 30.1722C153.911 30.7862 152.626 31.0376 151.355 30.8925H148.629V23.109H148.596ZM152.037 31.9542C153.564 32.0732 155.077 31.5942 156.261 30.6171C156.804 30.1617 157.239 29.5896 157.534 28.943C157.829 28.2964 157.976 27.5916 157.965 26.8803C157.987 25.7903 157.622 24.728 156.936 23.8847C156.249 23.0414 155.285 22.4726 154.219 22.2806C154.886 21.934 155.438 21.3989 155.807 20.741C156.176 20.0831 156.346 19.3311 156.297 18.5773C156.339 17.876 156.226 17.174 155.966 16.5219C155.706 15.8697 155.306 15.2837 154.794 14.8059C153.727 13.9799 152.385 13.5993 151.046 13.7432H147.438V31.9196H152.038L152.037 31.9542ZM148.596 14.8794H150.572C151.635 14.7812 152.706 14.9706 153.672 15.428C154.153 15.7566 154.543 16.2027 154.806 16.7244C155.069 17.2461 155.196 17.8264 155.175 18.411C155.225 18.9713 155.129 19.5351 154.896 20.0465C154.663 20.5579 154.301 20.9993 153.846 21.327C152.881 21.9305 151.735 22.1732 150.609 22.0128H148.633V14.8848L148.596 14.8794Z" fill="#806F59"/>
<path fill-rule="evenodd" clip-rule="evenodd" d="M170.676 25.9533L173.095 31.9192H174.288L166.723 13.165L159.125 31.957H160.317L162.737 25.9911H170.679L170.676 25.9533ZM170.233 24.8906H163.149L166.691 16.1134L170.233 24.8906Z" fill="#806F59"/>
<path fill-rule="evenodd" clip-rule="evenodd" d="M192.619 13.7827H191.461V29.6231L176.298 13.543V31.9548H177.456V16.3196L192.619 32.5369V13.7827Z" fill="#806F59"/>
<path fill-rule="evenodd" clip-rule="evenodd" d="M204.752 13.543C202.926 13.5664 201.149 14.1328 199.642 15.1709C198.136 16.209 196.968 17.6722 196.287 19.3765C195.605 21.0808 195.44 22.9499 195.812 24.7485C196.184 26.547 197.077 28.1947 198.377 29.4839C199.678 30.7731 201.328 31.6464 203.121 31.9936C204.914 32.3409 206.769 32.1466 208.452 31.4353C210.136 30.724 211.572 29.5275 212.581 27.9964C213.59 26.4653 214.126 24.6681 214.122 22.831C214.09 20.3533 213.088 17.9883 211.334 16.2494C209.58 14.5104 207.215 13.5379 204.752 13.543ZM204.752 14.6057C206.368 14.6125 207.946 15.1009 209.286 16.0092C210.626 16.9175 211.669 18.205 212.283 19.7092C212.896 21.2133 213.053 22.8667 212.734 24.4606C212.415 26.0545 211.633 27.5175 210.488 28.6648C209.343 29.8121 207.886 30.5924 206.3 30.9071C204.715 31.2218 203.073 31.0568 201.58 30.433C200.088 29.8092 198.813 28.7546 197.916 27.4021C197.019 26.0497 196.54 24.4602 196.54 22.8342C196.54 21.7507 196.753 20.6779 197.166 19.6773C197.579 18.6767 198.184 17.7681 198.947 17.0035C199.71 16.239 200.616 15.6336 201.612 15.2221C202.608 14.8106 203.675 14.6012 204.752 14.6057Z" fill="#806F59"/>
<path fill-rule="evenodd" clip-rule="evenodd" d="M226.08 16.0799C225.637 15.3012 224.996 14.6556 224.223 14.2096C223.449 13.7637 222.571 13.5335 221.68 13.543C221.069 13.5127 220.458 13.6103 219.887 13.8296C219.316 14.0489 218.796 14.385 218.36 14.8168C217.925 15.2486 217.583 15.7667 217.356 16.3382C217.13 16.9098 217.024 17.5224 217.045 18.1373C217.036 18.7999 217.206 19.4524 217.536 20.0259C217.866 20.5994 218.344 21.0723 218.919 21.3946L222.156 23.1085C223.723 23.8969 225.805 24.7545 225.805 26.8119C225.772 27.9676 225.289 29.064 224.461 29.8654C223.633 30.6668 222.525 31.1091 221.376 31.0973C220.393 31.0947 219.438 30.7729 218.652 30.1797C217.866 29.5866 217.291 28.7538 217.014 27.8055L216.028 28.285C216.39 29.4182 217.099 30.407 218.054 31.1092C219.009 31.8115 220.161 32.1911 221.344 32.1935C222.78 32.2328 224.174 31.7066 225.231 30.7269C226.287 29.7472 226.922 28.3914 227 26.9479C227.029 26.2114 226.853 25.4814 226.493 24.8395C226.133 24.1977 225.602 23.6694 224.961 23.3137L221.514 21.535C220.049 20.8492 218.277 20.023 218.277 18.1405C218.269 17.6865 218.352 17.2354 218.52 16.8139C218.688 16.3925 218.938 16.0091 219.256 15.6864C219.573 15.3637 219.952 15.1083 220.369 14.9351C220.786 14.7619 221.234 14.6745 221.685 14.6781C222.435 14.6706 223.173 14.8674 223.821 15.2477C224.469 15.6279 225.002 16.1775 225.365 16.8381L226.08 16.0799Z" fill="#806F59"/>
</g>
<defs>
<clipPath id="clip0_846_5640">
<rect width="227" height="54" fill="white"/>
</clipPath>
</defs>
</svg>
