<?xml version="1.0" encoding="utf-8"?>
<!-- Generator: Adobe Illustrator 19.0.0, SVG Export Plug-In . SVG Version: 6.00 Build 0)  -->
<svg version="1.1" id="Capa_1" xmlns="http://www.w3.org/2000/svg" xmlns:xlink="http://www.w3.org/1999/xlink" x="0px" y="0px"
	 viewBox="-165 374.2 187.5 93.7" style="enable-background:new -165 374.2 187.5 93.7;" xml:space="preserve">
<style type="text/css">
	.st0{fill:#1890AC;}
	.st1{fill:#241F20;}
	.st2{fill:url(#XMLID_3_);}
</style>
<g>
	
		<rect x="-164.9" y="437.5" transform="matrix(-1 -2.246737e-003 2.246737e-003 -1 -144.2839 875.5202)" class="st0" width="186.5" height="0.7"/>
	<path class="st1" d="M-160.7,380.1c-0.3-0.2-0.7-0.3-1.1-0.3c-1.3,0-2.1,0.9-2.1,2.1c0,1.3,0.9,2.2,2.1,2.2c0.4,0,0.9-0.1,1.2-0.3
		v0.8c-0.4,0.2-0.9,0.2-1.3,0.2c-1.7,0-2.9-1.1-2.9-2.9c0-1.7,1.2-2.8,2.9-2.8c0.4,0,0.8,0.1,1.2,0.2L-160.7,380.1z"/>
	<path class="st1" d="M-155.2,379.1c1.7,0,2.6,1.2,2.6,2.9c0,1.7-1,2.8-2.7,2.8c-1.7,0-2.6-1.2-2.6-2.9
		C-157.8,380.3-156.8,379.1-155.2,379.1 M-155.2,384.1c1.3,0,1.8-1.1,1.8-2.1c0-1.1-0.6-2.2-1.8-2.2s-1.8,1-1.8,2.1
		C-157,383.1-156.4,384.1-155.2,384.1"/>
	<polygon class="st1" points="-149.2,379.2 -148.2,379.2 -145.7,383.7 -145.7,383.7 -145.7,379.2 -144.9,379.2 -144.9,384.7 
		-145.9,384.7 -148.4,380.2 -148.4,380.2 -148.4,384.7 -149.2,384.7 	"/>
	<path class="st1" d="M-138.8,380.1c-0.4-0.2-0.6-0.2-1-0.2c-0.4,0-1,0.2-1,0.7c0,1.1,2.4,0.8,2.4,2.6c0,1.2-0.9,1.6-2,1.6
		c-0.4,0-0.8-0.1-1.1-0.2l0.1-0.7c0.3,0.1,0.7,0.3,1.1,0.3c0.4,0,1.1-0.2,1.1-0.9c0-1.2-2.4-0.9-2.4-2.6c0-1,0.8-1.5,1.8-1.5
		c0.4,0,0.8,0.1,1.2,0.2L-138.8,380.1z"/>
	<polygon class="st1" points="-134.1,380 -135.8,380 -135.8,379.3 -131.6,379.3 -131.6,380 -133.3,380 -133.3,384.8 -134.1,384.8 	
		"/>
	<path class="st1" d="M-128.7,379.3h1.3c1.1,0,2.1,0.2,2.1,1.5c0,0.7-0.5,1.1-1.1,1.3l0,0c0.2,0.1,0.4,0.2,0.5,0.6l1,2.2h-0.9
		l-0.8-1.9c-0.2-0.5-0.5-0.5-0.9-0.5h-0.5v2.4h-0.8L-128.7,379.3z M-127.9,381.6h0.7c0.8,0,1.2-0.3,1.2-0.9c0-0.5-0.4-0.8-1.1-0.8
		h-0.8L-127.9,381.6z"/>
	<path class="st1" d="M-117.4,382.5c0,1.5-0.8,2.4-2.1,2.4c-1.4,0-2.1-0.8-2.1-2.4v-3.2h0.8v3.1c0,1.1,0.3,1.8,1.3,1.8
		s1.3-0.7,1.4-1.8v-3.1h0.8L-117.4,382.5z"/>
	<path class="st1" d="M-110,380.2c-0.3-0.2-0.7-0.3-1.1-0.3c-1.3,0-2.1,0.9-2.1,2.1c0,1.3,0.9,2.2,2.1,2.2c0.4,0,0.9-0.1,1.2-0.3
		l0.1,0.8c-0.4,0.2-0.9,0.2-1.3,0.2c-1.7,0-2.9-1.1-2.9-2.9c0-1.7,1.2-2.8,2.9-2.8c0.4,0,0.8,0.1,1.2,0.2L-110,380.2z"/>
	<polygon class="st1" points="-105.7,380 -107.4,380 -107.4,379.3 -103.2,379.3 -103.2,380 -104.9,380 -104.9,384.8 -105.7,384.8 	
		"/>
	<path class="st1" d="M-97.8,379.2c1.7,0,2.6,1.2,2.6,2.9c0,1.7-1,2.8-2.7,2.8c-1.7,0-2.6-1.2-2.6-2.9
		C-100.5,380.5-99.5,379.2-97.8,379.2 M-97.8,384.2c1.3,0,1.8-1.1,1.8-2.2s-0.6-2.2-1.8-2.2s-1.8,1-1.8,2.1
		C-99.6,383.2-99.1,384.2-97.8,384.2"/>
	<path class="st1" d="M-91.9,379.4h1.3c1.1,0,2.1,0.2,2.1,1.5c0,0.7-0.5,1.1-1.1,1.3l0,0c0.2,0.1,0.4,0.2,0.5,0.6l1,2.2H-89
		l-0.8-1.9c-0.2-0.5-0.5-0.5-0.9-0.5h-0.5v2.4H-92L-91.9,379.4z M-91.1,381.7h0.7c0.8,0,1.2-0.3,1.2-0.9c0-0.5-0.4-0.8-1.1-0.8h-0.8
		L-91.1,381.7z"/>
	<path class="st1" d="M-83.1,379.4h0.8l2.3,5.5h-0.9l-0.6-1.4h-2.7l-0.6,1.4h-0.8L-83.1,379.4z M-82.7,380.1l-1.1,2.7h2.2
		L-82.7,380.1z"/>
	<path class="st1" d="M-13,435.8l-9-25.2l-9.7,25.2h-9.6l19.3-49.9l19.3,50L-13,435.8z M-97.7,434.9l0.1-34.7h11.3
		c10.8,0,15.9,3.7,15.8,11.6c0,7.1-5.2,11.4-14.1,11.4h-3.6v12.4h-9.2h-0.3h-10.1l-9-25.2l-9.7,25.2h-9.6l0.1-0.4
		c-2.2,0.5-4.9,0.9-8.6,0.9c-9.4,0-20.3-4.8-20.3-18.2c0-12.3,8.7-18.4,20.3-18.4c3.6,0,7.1,0.8,10.5,1.8l-0.8,7.7
		c-3-1.7-6-2.5-9.2-2.5c-6.7,0-11.1,4.8-11.1,11.4c0,6.9,4.9,11.2,11.8,11.2c3.1,0,6.2-0.8,8.8-1.8l0.2,3.5l17.5-45.2L-97.7,434.9z
		 M-88.2,406.9v9.6h2.4c3.2,0,5.8-1.2,5.8-4.9c0-3.6-2.6-4.8-5.8-4.8L-88.2,406.9z M-70.1,400.3h9.4l-0.1,35.4h-9.4L-70.1,400.3z
		 M-50.9,435.7l0.1-28.4h-8.7v-7l26.9,0.1v7h-8.7l-0.1,28.4L-50.9,435.7z M-2.5,435.8l0.1-35.4H7v28.5h14.6v7L-2.5,435.8z"/>
	<polygon class="st0" points="-156.6,451.2 -160.4,451.2 -163.1,463.6 -163.8,463.6 -161.1,451.2 -165,451.2 -164.9,450.6 
		-156.5,450.6 	"/>
	<path class="st0" d="M-152.8,462.2l-0.1,1.4h-0.6v-1.2c-0.3,0.5-0.7,0.8-1.2,1.1c-0.5,0.2-1.3,0.4-2.2,0.4c-1,0-1.7-0.2-2.1-0.5
		s-0.6-0.8-0.6-1.4c0-0.1,0-0.3,0-0.5s0-0.4,0.1-0.6s0.1-0.4,0.1-0.6c0-0.1,0.1-0.4,0.2-0.7c0.1-0.3,0.1-0.6,0.1-0.7l1-4.6h0.7
		l-1,4.6c0,0.1-0.1,0.3-0.1,0.7c-0.1,0.3-0.1,0.5-0.2,0.7c0,0.1,0,0.3-0.1,0.5c0,0.2-0.1,0.4-0.1,0.5s0,0.3,0,0.4
		c0,0.5,0.2,0.9,0.5,1.1c0.3,0.2,0.9,0.4,1.8,0.4c0.4,0,0.8,0,1.1-0.1s0.6-0.1,0.8-0.3c0.2-0.1,0.4-0.3,0.6-0.4
		c0.2-0.2,0.3-0.4,0.4-0.7c0.2-0.3,0.2-0.6,0.3-0.9s0.2-0.7,0.3-1.1l1.2-5.5h0.7L-152.8,462.2z"/>
	<polygon class="st0" points="-142,463.6 -142.9,463.6 -144,454.3 -143.3,454.3 -142.4,463.1 -137.6,454.3 -136.9,454.3 	"/>
	<path class="st0" d="M-136.6,463.6h-0.7l2-9.3h0.7L-136.6,463.6z M-134.1,452.1h-0.7l0.3-1.5h0.7L-134.1,452.1z"/>
	<path class="st0" d="M-126.9,462.3l-0.1,1.4h-0.6l0.1-1.2c-0.3,0.5-0.7,0.8-1.2,1.1c-0.5,0.2-1.2,0.4-2.2,0.3c-1,0-1.8-0.2-2.2-0.4
		c-0.4-0.3-0.6-0.8-0.6-1.4c0-0.4,0.2-1.4,0.5-3c0-0.1,0.1-0.2,0.1-0.4c0.1-0.6,0.2-1,0.3-1.3s0.2-0.6,0.3-1.1
		c0.1-0.4,0.3-0.7,0.5-0.9c0.2-0.2,0.4-0.4,0.7-0.6c0.3-0.2,0.6-0.4,1-0.4c0.4-0.1,0.9-0.1,1.4-0.1c0.9,0,1.6,0.1,2,0.3
		c0.4,0.2,0.7,0.6,0.7,1.1l1.1-4.9h0.7L-126.9,462.3z M-128.8,454.7c-0.5,0-0.9,0-1.2,0.1c-0.3,0.1-0.6,0.2-0.9,0.4
		c-0.2,0.2-0.4,0.3-0.6,0.5c-0.2,0.1-0.3,0.4-0.4,0.8s-0.2,0.7-0.3,1s-0.1,0.7-0.3,1.3c0,0.2-0.1,0.3-0.1,0.4
		c-0.3,1.4-0.5,2.4-0.5,2.7c0,0.6,0.2,0.9,0.5,1.2c0.4,0.2,1,0.4,1.9,0.4c0.5,0,0.9,0,1.2-0.1c0.4-0.1,0.6-0.2,0.9-0.4
		c0.3-0.2,0.4-0.3,0.6-0.5c0.1-0.2,0.3-0.4,0.4-0.8c0.2-0.4,0.2-0.7,0.3-1c0.1-0.3,0.2-0.7,0.3-1.3c0-0.2,0.1-0.3,0.1-0.4
		c0.3-1.4,0.5-2.4,0.5-2.8c0-0.6-0.2-0.9-0.5-1.2C-127.3,454.8-127.9,454.7-128.8,454.7"/>
	<path class="st0" d="M-117.5,462.3l-0.1,1.4h-0.6l0.1-1.3c-0.3,0.5-0.7,0.8-1.2,1.1c-0.5,0.2-1.2,0.4-2.2,0.3c-1,0-1.8-0.2-2.2-0.5
		c-0.4-0.3-0.6-0.8-0.6-1.4c0-0.4,0.2-1.4,0.5-3c0-0.1,0.1-0.2,0.1-0.4c0.1-0.6,0.2-1.1,0.3-1.3c0.1-0.3,0.2-0.6,0.3-1.1
		c0.1-0.4,0.3-0.7,0.5-0.9c0.2-0.2,0.4-0.4,0.7-0.6c0.3-0.2,0.6-0.4,1-0.4c0.4-0.1,0.9-0.1,1.4-0.1c0.9,0,1.6,0.1,2,0.4
		c0.4,0.2,0.7,0.6,0.8,1.1l0.3-1.2h0.6L-117.5,462.3z M-119.4,454.7c-0.5,0-0.9,0-1.2,0.1c-0.3,0.1-0.6,0.2-0.9,0.4
		c-0.2,0.2-0.4,0.3-0.6,0.5c-0.1,0.1-0.3,0.4-0.4,0.8s-0.2,0.7-0.3,1c-0.1,0.3-0.2,0.7-0.3,1.3c0,0.2-0.1,0.3-0.1,0.4
		c-0.3,1.4-0.5,2.4-0.5,2.7c0,0.6,0.2,0.9,0.5,1.2c0.4,0.2,1,0.4,1.9,0.4c0.5,0,0.9,0,1.2-0.1c0.4-0.1,0.6-0.2,0.9-0.3
		c0.3-0.2,0.4-0.3,0.6-0.5c0.1-0.2,0.3-0.4,0.4-0.8s0.2-0.7,0.3-1c0.1-0.3,0.2-0.7,0.3-1.3c0-0.2,0.1-0.3,0.1-0.4
		c0.3-1.4,0.5-2.4,0.5-2.8c0-0.6-0.2-0.9-0.5-1.2C-117.9,454.8-118.5,454.7-119.4,454.7"/>
	<path class="st0" d="M-114.2,462.2l-0.4,1.7c-0.1,0.6-0.5,1-1.2,1.3l-0.2-0.5c0.4-0.2,0.6-0.5,0.7-0.8l0.4-1.7H-114.2z"/>
	<path class="st1" d="M-106.6,454.4l0.2,1.2c0.2-0.5,0.5-0.8,1-1.1c0.5-0.2,1.2-0.4,2.1-0.4c0.4,0,0.8,0,1.1,0.1s0.6,0.1,0.8,0.2
		c0.2,0.1,0.4,0.2,0.6,0.4c0.2,0.2,0.3,0.3,0.4,0.5c0.1,0.2,0.2,0.4,0.2,0.7c0.1,0.3,0.1,0.5,0.1,0.8c0,0.2,0,0.6,0,0.9v0.6v0.6v4.6
		h-0.7v-4.6v-0.6c0-0.3,0-0.4,0-0.5c0-0.4,0-0.8,0-1c0-0.3-0.1-0.5-0.1-0.8c-0.1-0.3-0.2-0.5-0.3-0.6s-0.2-0.3-0.5-0.4
		c-0.2-0.2-0.5-0.2-0.8-0.3c-0.3-0.1-0.7-0.1-1.1-0.1s-0.8,0-1.1,0.1c-0.3,0-0.5,0.1-0.8,0.3c-0.2,0.1-0.4,0.3-0.5,0.4
		s-0.2,0.4-0.3,0.7c-0.1,0.3-0.1,0.6-0.1,0.9s0,0.6,0,1.1v5.5h-0.7v-7.9l-0.2-1.4L-106.6,454.4L-106.6,454.4z"/>
	<path class="st1" d="M-90.9,462.4l0.2,1.4h-0.6l-0.2-1.2c-0.2,0.5-0.5,0.8-1,1.1c-0.5,0.2-1.2,0.3-2.1,0.3c-0.4,0-0.8,0-1.1-0.1
		c-0.3-0.1-0.6-0.1-0.8-0.2s-0.4-0.2-0.6-0.4c-0.1-0.2-0.3-0.4-0.4-0.5c-0.1-0.2-0.1-0.4-0.2-0.7c0-0.3-0.1-0.6-0.1-0.8
		c0-0.3,0-0.6,0-0.9v-0.6v-0.6v-4.6h0.7v4.6v0.6v0.5c0,0.4,0,0.8,0,1c0,0.3,0.1,0.5,0.1,0.8c0.1,0.3,0.1,0.5,0.3,0.6
		c0.1,0.1,0.3,0.3,0.5,0.4c0.2,0.1,0.5,0.2,0.8,0.3c0.3,0,0.7,0.1,1.1,0.1s0.8,0,1.1-0.1c0.3,0,0.6-0.1,0.8-0.3
		c0.2-0.1,0.4-0.3,0.5-0.4c0.1-0.2,0.2-0.4,0.3-0.7c0.1-0.3,0.1-0.6,0.1-0.9s0.1-0.7,0.1-1.1v-5.5h0.7L-90.9,462.4z"/>
	<path class="st1" d="M-82.2,462.7l0.3,0.4c-0.4,0.3-0.8,0.5-1.3,0.7c-0.4,0.1-1,0.2-1.9,0.2c-0.5,0-0.9,0-1.2-0.1
		c-0.4-0.1-0.6-0.1-0.9-0.2c-0.2-0.1-0.4-0.3-0.6-0.5s-0.3-0.4-0.4-0.6c-0.1-0.2-0.2-0.4-0.2-0.8c0-0.3-0.1-0.6-0.1-0.9s0-0.6,0-1
		v-0.4v-0.4v-0.4v-0.4c0-0.4,0-0.8,0-1c0-0.3,0.1-0.6,0.1-0.9c0.1-0.3,0.1-0.6,0.2-0.8c0.1-0.2,0.2-0.4,0.4-0.6
		c0.2-0.2,0.4-0.3,0.6-0.4c0.3-0.1,0.6-0.2,0.9-0.2c0.4-0.1,0.8-0.1,1.2-0.1c0.5,0,0.9,0,1.3,0.1c0.4,0.1,0.7,0.2,0.9,0.3
		c0.3,0.1,0.4,0.3,0.6,0.5c0.1,0.2,0.3,0.4,0.3,0.7c0.1,0.3,0.1,0.6,0.1,0.9s0,0.6,0,1.1c0,0.1,0,0.3,0,0.6c0,0.3,0,0.5,0,0.7v0.5
		h-6.2v0.9c0,0.2,0,0.4,0,0.8c0,0.3,0.1,0.5,0.1,0.7c0.1,0.1,0.1,0.3,0.2,0.5s0.2,0.3,0.3,0.4c0.1,0.1,0.3,0.2,0.5,0.3
		c0.2,0.1,0.4,0.2,0.7,0.2s0.6,0.1,0.9,0.1c0.8,0,1.3,0,1.7-0.1C-82.9,463.2-82.5,463-82.2,462.7 M-82.3,459.1v-0.2v-0.6v-0.7
		c0-0.2,0-0.5,0-0.7s0-0.4,0-0.5c0-0.2,0-0.3-0.1-0.5c0-0.2-0.1-0.3-0.2-0.4c-0.1-0.1-0.1-0.2-0.3-0.3c-0.1-0.1-0.2-0.2-0.3-0.2
		c-0.1-0.1-0.3-0.1-0.5-0.2c-0.2-0.1-0.4-0.1-0.6-0.1s-0.5,0-0.7,0c-0.4,0-0.7,0-1,0.1c-0.3,0-0.5,0.1-0.7,0.2
		c-0.2,0.1-0.4,0.2-0.5,0.4c-0.1,0.2-0.2,0.3-0.3,0.5s-0.1,0.4-0.2,0.7c0,0.3,0,0.5-0.1,0.8c0,0.2,0,0.6,0,1v0.3v0.3v0.2
		L-82.3,459.1z"/>
	<path class="st1" d="M-80,461.5l0.6-0.1c0.1,0.7,0.3,1.2,0.8,1.6c0.4,0.3,1.1,0.5,2.1,0.5c1.1,0,1.8-0.2,2.2-0.5
		c0.4-0.4,0.6-0.9,0.6-1.6s-0.2-1.2-0.6-1.5c-0.4-0.3-1.1-0.5-2.2-0.6c-1.3-0.2-2.2-0.5-2.6-0.8c-0.5-0.4-0.7-0.9-0.7-1.6
		c0-1.7,1.1-2.5,3.3-2.5c1,0,1.8,0.1,2.3,0.4s0.8,0.7,1,1.3l-0.6,0.2c-0.1-0.5-0.4-0.8-0.8-1s-1-0.3-1.9-0.3c-1.7,0-2.6,0.7-2.6,2
		c0,0.6,0.2,0.9,0.5,1.2c0.4,0.3,1.1,0.5,2.2,0.6c1.3,0.2,2.1,0.4,2.6,0.8s0.8,1,0.8,1.9s-0.3,1.5-0.8,1.9s-1.4,0.7-2.7,0.7
		c-1.1,0-2-0.2-2.5-0.6C-79.6,462.9-79.9,462.3-80,461.5"/>
	<path class="st1" d="M-69.9,454.5h2.9v0.5h-2.9v5.1c0,0.5,0,1,0,1.3s0.1,0.6,0.1,0.9c0.1,0.3,0.2,0.6,0.3,0.7
		c0.2,0.1,0.4,0.3,0.7,0.4c0.3,0.1,0.6,0.1,1.1,0.1c0.3,0,0.5,0,0.7,0l0.1,0.5c-0.2,0-0.5,0.1-0.9,0.1s-0.7,0-1-0.1
		s-0.5-0.2-0.7-0.3c-0.2-0.1-0.4-0.2-0.5-0.4c-0.1-0.2-0.2-0.4-0.3-0.6s-0.1-0.4-0.2-0.8c0-0.3,0-0.6-0.1-0.9c0-0.3,0-0.6,0-1.1
		v-0.3v-0.3v-4.2H-72v-0.5h1.4v-2.4h0.7C-69.9,452.2-69.9,454.5-69.9,454.5z"/>
	<path class="st1" d="M-64.4,454.5l0.2,1.3c0.2-0.6,0.5-0.9,1-1.2c0.4-0.2,1-0.4,1.8-0.3c1,0,1.7,0.2,2.2,0.7l-0.2,0.4
		c-0.4-0.4-1.1-0.6-2.1-0.6c-0.8,0-1.3,0.1-1.7,0.4s-0.6,0.8-0.8,1.6v7h-0.7v-7.6l-0.3-1.7L-64.4,454.5L-64.4,454.5z"/>
	<path class="st1" d="M-51.1,458.4v0.4v0.4v0.4v0.4c0,0.4,0,0.8,0,1c0,0.3,0,0.5-0.1,0.9c0,0.3-0.1,0.6-0.2,0.8
		c-0.1,0.2-0.2,0.4-0.4,0.6c-0.2,0.2-0.4,0.3-0.6,0.4s-0.5,0.2-0.9,0.3c-0.4,0.1-0.8,0.1-1.2,0.1c-0.5,0-0.9,0-1.3-0.1
		s-0.6-0.1-0.9-0.2c-0.2-0.1-0.4-0.3-0.6-0.5s-0.3-0.4-0.4-0.6c-0.1-0.2-0.2-0.4-0.2-0.8c0-0.3-0.1-0.6-0.1-0.9s0-0.6,0-1v-0.4v-0.4
		v-0.4v-0.4c0-0.4,0-0.8,0-1c0-0.3,0.1-0.6,0.1-0.9c0.1-0.3,0.1-0.6,0.2-0.8c0.1-0.2,0.2-0.4,0.4-0.6s0.4-0.4,0.6-0.4
		c0.3-0.1,0.6-0.2,0.9-0.2c0.4-0.1,0.8-0.1,1.2-0.1c0.5,0,0.9,0,1.2,0.1c0.4,0.1,0.7,0.2,0.9,0.3c0.3,0.1,0.5,0.2,0.6,0.4
		c0.2,0.2,0.3,0.4,0.4,0.6c0.1,0.2,0.2,0.4,0.2,0.8c0.1,0.3,0.1,0.6,0.1,0.9C-51.1,457.6-51.1,457.9-51.1,458.4 M-57.4,458.4v0.4
		v0.4v0.4v0.4v1c0,0.2,0,0.5,0.1,0.8c0,0.3,0.1,0.5,0.2,0.7c0.1,0.1,0.2,0.3,0.3,0.5c0.2,0.2,0.3,0.3,0.5,0.4
		c0.2,0.1,0.5,0.2,0.7,0.2c0.3,0,0.6,0.1,1,0.1c0.4,0,0.7,0,1-0.1c0.3-0.1,0.5-0.1,0.7-0.2s0.4-0.2,0.5-0.4c0.2-0.2,0.2-0.3,0.3-0.5
		c0.1-0.2,0.1-0.4,0.2-0.7c0-0.3,0.1-0.6,0.1-0.8c0-0.3,0-0.6,0-1v-0.4v-0.4v-0.4v-0.4c0-0.4,0-0.7,0-1s0-0.5-0.1-0.8
		c0-0.3-0.1-0.5-0.2-0.7c-0.1-0.2-0.2-0.3-0.3-0.5c-0.1-0.2-0.3-0.3-0.5-0.4s-0.4-0.1-0.7-0.2c-0.3-0.1-0.6-0.1-1-0.1
		c-0.4,0-0.7,0-1,0.1c-0.3,0-0.5,0.1-0.7,0.2c-0.2,0.1-0.4,0.2-0.5,0.4c-0.1,0.2-0.2,0.3-0.3,0.5c-0.1,0.1-0.1,0.4-0.2,0.7
		c0,0.3,0,0.5-0.1,0.8C-57.4,457.7-57.4,458-57.4,458.4"/>
	<path class="st1" d="M-42.7,454.6l0.2,1.2c0.2-0.5,0.5-0.9,1-1.1s1.2-0.4,2.1-0.4c0.4,0,0.8,0,1.2,0.1c0.3,0.1,0.6,0.1,0.9,0.2
		c0.2,0.1,0.4,0.2,0.6,0.4c0.2,0.2,0.3,0.4,0.4,0.6c0.1,0.2,0.2,0.4,0.2,0.8c0.1,0.3,0.1,0.6,0.1,0.9s0,0.6,0,1v0.4v0.4v0.4v0.4
		c0,0.4,0,0.8,0,1.1c0,0.3,0,0.5-0.1,0.9c0,0.3-0.1,0.6-0.2,0.8c-0.1,0.2-0.2,0.4-0.4,0.6c-0.1,0.2-0.3,0.3-0.6,0.4
		c-0.2,0.1-0.5,0.2-0.9,0.3c-0.3,0.1-0.7,0.1-1.2,0.1c-0.9,0-1.6-0.1-2.1-0.3c-0.5-0.2-0.8-0.6-1-1.1v4.9h-0.7V456l-0.2-1.4
		L-42.7,454.6z M-42.4,458.5v0.4v0.4v0.4v0.4c0,0.4,0,0.7,0,1c0,0.2,0,0.5,0.1,0.8c0,0.3,0.1,0.5,0.2,0.7c0.1,0.1,0.2,0.3,0.3,0.5
		c0.1,0.2,0.3,0.3,0.5,0.4c0.2,0.1,0.4,0.1,0.7,0.2c0.3,0,0.6,0.1,1,0.1c0.4,0,0.7,0,1-0.1c0.3-0.1,0.5-0.1,0.7-0.2s0.4-0.2,0.5-0.4
		c0.1-0.2,0.2-0.3,0.3-0.5c0.1-0.2,0.2-0.4,0.2-0.7c0-0.3,0.1-0.6,0.1-0.8c0-0.3,0-0.6,0-1v-0.4v-0.4v-0.4v-0.4c0-0.4,0-0.7,0-1
		s0-0.5-0.1-0.8c0-0.3-0.1-0.5-0.2-0.7c-0.1-0.2-0.2-0.3-0.3-0.5c-0.1-0.2-0.3-0.3-0.5-0.4s-0.4-0.2-0.7-0.2c-0.3-0.1-0.6-0.1-1-0.1
		c-0.4,0-0.7,0-1,0.1c-0.3,0-0.5,0.1-0.7,0.2c-0.2,0.1-0.4,0.2-0.5,0.4c-0.1,0.2-0.2,0.3-0.3,0.5c-0.1,0.1-0.1,0.4-0.2,0.7
		c0,0.3-0.1,0.6-0.1,0.8S-42.4,458-42.4,458.5"/>
	<path class="st1" d="M-33.2,454.6l0.2,1.3c0.2-0.6,0.5-0.9,1-1.2c0.4-0.2,1-0.3,1.8-0.3c1,0,1.7,0.2,2.2,0.7l-0.2,0.4
		c-0.4-0.4-1.1-0.6-2.1-0.6c-0.8,0-1.3,0.1-1.7,0.4c-0.4,0.3-0.6,0.8-0.8,1.6v7h-0.7v-7.6l-0.3-1.7L-33.2,454.6z"/>
	<path class="st1" d="M-19.8,458.5v0.4v0.4v0.4v0.4c0,0.4,0,0.8,0,1c0,0.3,0,0.5-0.1,0.9c0,0.3-0.1,0.6-0.2,0.8
		c-0.1,0.2-0.2,0.4-0.4,0.6c-0.2,0.2-0.4,0.3-0.6,0.4s-0.5,0.2-0.9,0.3c-0.4,0.1-0.8,0.1-1.2,0.1c-0.5,0-0.9,0-1.3-0.1
		s-0.6-0.1-0.9-0.2c-0.2-0.1-0.4-0.3-0.6-0.5s-0.3-0.4-0.4-0.6s-0.2-0.4-0.2-0.8c0-0.3-0.1-0.6-0.1-0.9s0-0.6,0-1v-0.4v-0.4v-0.4
		v-0.4c0-0.4,0-0.8,0-1c0-0.3,0.1-0.6,0.1-0.9c0.1-0.3,0.1-0.6,0.2-0.8c0.1-0.2,0.2-0.4,0.4-0.6s0.4-0.4,0.6-0.4
		c0.3-0.1,0.6-0.2,0.9-0.2c0.4-0.1,0.8-0.1,1.2-0.1c0.5,0,0.9,0,1.2,0.1c0.4,0.1,0.7,0.1,0.9,0.3c0.3,0.1,0.5,0.2,0.6,0.4
		c0.2,0.2,0.3,0.4,0.4,0.6s0.2,0.4,0.2,0.8c0,0.3,0.1,0.6,0.1,0.9C-19.8,457.7-19.8,458-19.8,458.5 M-26.1,458.5v0.4v0.4v0.4v0.4v1
		c0,0.2,0,0.5,0.1,0.8c0,0.3,0.1,0.5,0.2,0.7c0.1,0.1,0.2,0.3,0.3,0.5c0.2,0.2,0.3,0.3,0.5,0.4s0.5,0.1,0.7,0.2c0.3,0,0.6,0.1,1,0.1
		c0.4,0,0.7,0,1-0.1s0.5-0.1,0.7-0.2s0.4-0.2,0.5-0.4c0.2-0.2,0.2-0.3,0.3-0.5c0.1-0.2,0.1-0.4,0.2-0.7c0-0.3,0.1-0.6,0.1-0.8
		c0-0.3,0-0.6,0-1v-0.4v-0.4v-0.4v-0.4c0-0.4,0-0.7,0-1s0-0.5-0.1-0.8c0-0.3-0.1-0.5-0.2-0.7s-0.2-0.3-0.3-0.5
		c-0.1-0.2-0.3-0.3-0.5-0.4s-0.4-0.1-0.7-0.2c-0.3-0.1-0.6-0.1-1-0.1s-0.7,0-1,0.1c-0.3,0-0.5,0.1-0.7,0.2c-0.2,0.1-0.4,0.2-0.5,0.4
		c-0.1,0.2-0.2,0.3-0.3,0.5c-0.1,0.1-0.1,0.4-0.2,0.7c0,0.3,0,0.5-0.1,0.8C-26.1,457.7-26.1,458.1-26.1,458.5"/>
	<polygon class="st1" points="-15.7,467.6 -16.3,467.6 -15.1,463.9 -15.5,463.9 -18.5,454.6 -17.8,454.6 -15,463.4 -12.1,454.6 
		-11.4,454.6 	"/>
	<path class="st1" d="M-3.9,462.9l0.3,0.4c-0.4,0.3-0.8,0.5-1.3,0.7c-0.4,0.1-1,0.2-1.9,0.2c-0.5,0-0.9,0-1.2-0.1
		c-0.4-0.1-0.7-0.1-0.9-0.2s-0.4-0.3-0.6-0.5s-0.3-0.4-0.4-0.6s-0.2-0.4-0.2-0.8c0-0.3-0.1-0.6-0.1-0.9s0-0.6,0-1v-0.4v-0.4v-0.4
		v-0.4c0-0.4,0-0.8,0-1c0-0.3,0.1-0.6,0.1-0.9c0.1-0.3,0.1-0.6,0.2-0.8c0.1-0.2,0.2-0.4,0.4-0.6s0.4-0.3,0.6-0.4
		c0.3-0.1,0.6-0.2,0.9-0.2c0.4-0.1,0.8-0.1,1.2-0.1c0.5,0,0.9,0,1.3,0.1s0.7,0.2,0.9,0.3c0.3,0.1,0.4,0.3,0.6,0.5
		c0.1,0.2,0.3,0.4,0.3,0.7c0.1,0.3,0.1,0.6,0.1,0.9s0,0.6,0,1.1c0,0.1,0,0.3,0,0.7c0,0.3,0,0.5,0,0.7v0.5h-6.1v0.9
		c0,0.2,0,0.4,0,0.8c0,0.3,0.1,0.5,0.1,0.7c0.1,0.1,0.1,0.3,0.2,0.5s0.2,0.3,0.3,0.4s0.3,0.2,0.5,0.3c0.2,0.1,0.4,0.1,0.7,0.2
		c0.3,0,0.6,0.1,0.9,0.1c0.8,0,1.3,0,1.7-0.1C-4.6,463.4-4.2,463.2-3.9,462.9 M-4,459.3v-0.2v-0.6v-0.7c0-0.2,0-0.5,0-0.7
		s0-0.4,0-0.5c0-0.2,0-0.3-0.1-0.5c0-0.2-0.1-0.3-0.2-0.4c-0.1-0.1-0.1-0.2-0.3-0.3c-0.1-0.1-0.2-0.2-0.3-0.2
		c-0.1-0.1-0.3-0.1-0.5-0.2s-0.4-0.1-0.6-0.1s-0.5,0-0.7,0c-0.4,0-0.7,0-1,0.1c-0.3,0-0.5,0.1-0.7,0.2s-0.4,0.2-0.5,0.4
		c-0.1,0.2-0.2,0.3-0.3,0.5c-0.1,0.1-0.1,0.4-0.2,0.7c0,0.3,0,0.5-0.1,0.8c0,0.2,0,0.6,0,1v0.3v0.3v0.2L-4,459.3z"/>
	<path class="st1" d="M4.8,461h0.6c0,0.5,0,1-0.1,1.3s-0.2,0.7-0.4,0.9c-0.2,0.3-0.6,0.5-1,0.6s-1,0.2-1.7,0.2c-0.5,0-0.9,0-1.2-0.1
		c-0.4-0.1-0.6-0.1-0.9-0.2c-0.2-0.1-0.4-0.3-0.6-0.5s-0.3-0.4-0.4-0.6c-0.1-0.2-0.2-0.4-0.2-0.8c0-0.3-0.1-0.6-0.1-0.9s0-0.6,0-1.1
		v-0.4V459v-0.1v-0.4c0-0.4,0-0.8,0-1c0-0.3,0.1-0.6,0.1-0.9c0.1-0.3,0.1-0.6,0.2-0.8c0.1-0.2,0.2-0.4,0.4-0.6s0.4-0.4,0.6-0.4
		c0.3-0.1,0.6-0.2,0.9-0.2c0.4-0.1,0.8-0.1,1.2-0.1c0.7,0,1.3,0.1,1.7,0.2s0.8,0.3,1,0.6c0.2,0.3,0.4,0.6,0.4,0.9
		c0.1,0.3,0.1,0.8,0.1,1.3H4.8c0-0.5,0-0.9-0.1-1.2c-0.1-0.3-0.2-0.6-0.3-0.8c-0.2-0.2-0.4-0.4-0.8-0.5c-0.4-0.1-0.8-0.1-1.4-0.2
		c-0.4,0-0.7,0-1,0.1c-0.3,0-0.5,0.1-0.7,0.2s-0.4,0.2-0.5,0.4c-0.1,0.2-0.2,0.3-0.3,0.5c-0.1,0.1-0.2,0.4-0.2,0.7
		c0,0.3,0,0.5-0.1,0.8c0,0.2,0,0.6,0,1v0.4v0.4v0.4v0.4v1c0,0.2,0,0.5,0.1,0.8c0,0.3,0.1,0.5,0.2,0.7c0.1,0.1,0.2,0.3,0.3,0.5
		c0.2,0.2,0.3,0.3,0.5,0.4s0.5,0.1,0.7,0.2c0.3,0,0.6,0.1,1,0.1c0.6,0,1,0,1.4-0.1s0.6-0.3,0.8-0.5s0.3-0.5,0.4-0.8
		C4.7,461.9,4.8,461.5,4.8,461"/>
	<path class="st1" d="M8.7,454.7h2.9v0.5H8.7v5.1c0,0.5,0,1,0,1.3s0.1,0.6,0.1,0.9c0.1,0.3,0.2,0.6,0.3,0.7c0.2,0.1,0.4,0.3,0.6,0.4
		c0.3,0.1,0.7,0.1,1.1,0.1c0.3,0,0.5,0,0.7,0l0.1,0.5c-0.2,0-0.5,0.1-0.9,0.1s-0.7,0-1-0.1S9.2,464,9,463.9
		c-0.2-0.1-0.4-0.2-0.5-0.4c-0.1-0.2-0.2-0.4-0.3-0.6s-0.1-0.4-0.2-0.8c0-0.3,0-0.6-0.1-0.9c0-0.3,0-0.6,0-1.1v-0.3v-0.3v-4.2H6.5
		v-0.5H8v-2.4h0.7C8.7,452.4,8.7,454.7,8.7,454.7z"/>
	<path class="st1" d="M20.2,458.6v0.4v0.4v0.4v0.4c0,0.4,0,0.8,0,1c0,0.3,0,0.5-0.1,0.9c0,0.3-0.1,0.6-0.2,0.8
		c-0.1,0.2-0.2,0.4-0.4,0.6s-0.4,0.3-0.6,0.4c-0.2,0.1-0.5,0.2-0.9,0.3c-0.4,0.1-0.8,0.1-1.2,0.1c-0.5,0-0.9,0-1.3-0.1
		s-0.6-0.1-0.9-0.2c-0.2-0.1-0.4-0.3-0.6-0.5s-0.3-0.4-0.4-0.6s-0.2-0.4-0.2-0.8c0-0.3-0.1-0.6-0.1-0.9s0-0.6,0-1v-0.4v-0.4v-0.5
		v-0.4c0-0.4,0-0.8,0-1c0-0.3,0.1-0.6,0.1-0.9c0.1-0.3,0.1-0.6,0.2-0.8c0.1-0.2,0.2-0.4,0.4-0.6s0.4-0.4,0.6-0.4
		c0.3-0.1,0.6-0.2,0.9-0.2c0.4-0.1,0.8-0.1,1.2-0.1c0.5,0,0.9,0,1.2,0.1c0.4,0.1,0.7,0.1,0.9,0.3c0.3,0.1,0.5,0.2,0.6,0.4
		c0.2,0.2,0.3,0.4,0.4,0.6s0.2,0.4,0.2,0.8c0.1,0.3,0.1,0.6,0.1,0.9C20.2,457.8,20.2,458.1,20.2,458.6 M13.9,458.6v0.4v0.4v0.4v0.4
		v1c0,0.2,0,0.5,0.1,0.8c0,0.3,0.1,0.5,0.2,0.7c0.1,0.1,0.2,0.3,0.3,0.5c0.2,0.2,0.3,0.3,0.5,0.4s0.5,0.1,0.7,0.2
		c0.3,0,0.6,0.1,1,0.1s0.7,0,1-0.1s0.5-0.1,0.7-0.2s0.4-0.2,0.5-0.4c0.1-0.2,0.2-0.3,0.3-0.5s0.1-0.4,0.2-0.7c0-0.3,0.1-0.6,0.1-0.8
		c0-0.3,0-0.6,0-1v-0.4v-0.4V459v-0.4c0-0.4,0-0.7,0-1s0-0.5-0.1-0.8c0-0.3-0.1-0.5-0.2-0.7s-0.2-0.3-0.3-0.5s-0.3-0.3-0.5-0.4
		s-0.4-0.1-0.7-0.2s-0.6-0.1-1-0.1s-0.7,0-1,0.1c-0.3,0-0.5,0.1-0.7,0.2s-0.4,0.2-0.5,0.4c-0.1,0.2-0.2,0.3-0.3,0.5
		c-0.1,0.1-0.1,0.4-0.2,0.7c0,0.3,0,0.5-0.1,0.8C13.9,457.8,13.9,458.2,13.9,458.6"/>
	<polygon class="st1" points="22.5,464 21.8,464 21.8,462.4 22.5,462.4 	"/>
	
		<radialGradient id="XMLID_3_" cx="-1282.8816" cy="829.942" r="0.363" gradientTransform="matrix(31.4169 0 0 -31.6434 40240.832 26644.6152)" gradientUnits="userSpaceOnUse">
		<stop  offset="1.000000e-002" style="stop-color:#FFFFFF"/>
		<stop  offset="0.99" style="stop-color:#179BA7"/>
	</radialGradient>
	<path id="XMLID_2_" class="st2" d="M-76.9,385.7c0-6.4,5.2-11.5,11.4-11.5c6.4,0,11.5,5.2,11.5,11.5s-5.2,11.5-11.5,11.5
		C-71.7,397.3-76.9,392.1-76.9,385.7z"/>
</g>
</svg>
