<?xml version="1.0" encoding="UTF-8"?>
<svg width="100" height="50" viewBox="0 0 100 50" fill="none" xmlns="http://www.w3.org/2000/svg">
<g clip-path="url(#clip0_422_13866)">
<path d="M6.95915 16.7785C3.00995 17.4362 0 20.8653 0 24.9964C0 28.0901 1.68847 30.7906 4.1958 32.2277C4.79634 32.5718 5.4433 32.8434 6.12579 33.0303L9.04726 16.6944L11.6307 2.2506C11.7033 1.84641 12.055 1.55231 12.4663 1.55231H13.2982L13.576 0H11.9941C10.817 0 9.80954 0.842436 9.60211 1.99997L6.95915 16.7785Z" fill="#050130"/>
<path d="M9.73122 33.2201C13.6782 32.5602 16.6853 29.1332 16.6853 25.0043C16.6853 21.9164 15.0033 19.221 12.5047 17.7817C11.8955 17.4304 11.2376 17.1544 10.5443 16.9661L7.62353 33.3048L5.0415 47.7494C4.96897 48.1536 4.6172 48.4477 4.20596 48.4477H3.3697L3.09192 50H4.68465C5.86107 50 6.8685 49.1583 7.07593 48.0022L9.73122 33.2201Z" fill="#050130"/>
<path d="M24.4887 17.8447H21.3801V33.3331H24.4887V17.8447Z" fill="#050130"/>
<path d="M27.413 21.8953H30.2257V23.457H30.275C31.2251 22.23 32.4792 21.6244 34.0277 21.6382C35.3724 21.6519 36.3595 22.0728 36.997 22.9073C37.6055 23.728 37.9036 24.7978 37.9036 26.1169V33.3316H34.9299V27.2208C34.9299 26.8543 34.9219 26.474 34.8995 26.0829C34.8828 25.7004 34.811 25.3534 34.6855 25.0391C34.5847 24.7022 34.3997 24.4277 34.1328 24.214C33.8507 24.025 33.4728 23.9351 32.9978 23.9351C32.4734 23.9351 32.0418 24.0604 31.7169 24.314C31.3941 24.5588 31.1265 24.8761 30.9169 25.2701C30.7254 25.6548 30.592 26.059 30.5202 26.4856C30.4295 26.934 30.3882 27.3483 30.3882 27.7308V33.333H27.4152V21.8946H27.413V21.8953Z" fill="#050130"/>
<path d="M41.7934 24.067H39.6052V21.8954H41.7934V19.61L44.7707 18.6575V21.8954H47.4187V24.067H44.7707V29.4143C44.7583 29.9163 44.8447 30.3451 45.0521 30.6971C45.2436 31.0897 45.62 31.2911 46.1669 31.3085C46.7326 31.3085 47.1844 31.1991 47.5239 30.992L47.6124 33.3331C47.0242 33.5164 46.288 33.6018 45.4162 33.6018C43.0191 33.5337 41.8115 32.3045 41.7955 29.904V24.0641L41.7934 24.0663V24.067Z" fill="#050130"/>
<path d="M56.9062 26.5038C56.8815 25.749 56.6777 25.1173 56.3013 24.6132C55.9147 24.0974 55.3106 23.828 54.4859 23.8062C53.67 23.828 53.0361 24.0829 52.5878 24.569C52.1461 25.0789 51.8952 25.7229 51.835 26.5052H56.9055V26.503L56.9062 26.5038ZM58.8986 32.7C57.852 33.3019 56.5421 33.6047 54.9755 33.6047C51.0343 33.5373 49.0397 31.5627 49.0005 27.6772C49.0005 25.9699 49.4444 24.5451 50.3329 23.3977C51.217 22.2539 52.5371 21.6686 54.3031 21.6404C56.392 21.6541 57.836 22.2996 58.6273 23.5708C59.3881 24.8421 59.7624 26.4972 59.7457 28.5436H51.8357C51.9119 29.4642 52.2426 30.1712 52.8352 30.6551C53.4313 31.1752 54.1842 31.436 55.1031 31.436C55.827 31.436 56.5095 31.3164 57.1448 31.0796C57.7657 30.8702 58.3517 30.6015 58.8986 30.2726V32.6993V32.7Z" fill="#050130"/>
<path d="M67.6702 31.0382C68.5979 31.0223 69.2702 30.6673 69.6836 29.9741C70.0825 29.307 70.2863 28.4761 70.2863 27.4917C70.2863 26.5073 70.0948 25.6431 69.7046 24.9753C69.2956 24.298 68.6581 23.9474 67.7986 23.9351C66.8115 23.967 66.1268 24.3393 65.7467 25.0629C65.329 25.7982 65.1295 26.6312 65.1418 27.5671C65.1418 28.3921 65.358 29.1672 65.7917 29.8843C66.0144 30.2247 66.2856 30.5 66.5917 30.6992C66.9021 30.9259 67.264 31.0375 67.6731 31.0375H67.6709L67.6702 31.0382ZM73.2607 21.8953V32.2254C73.2607 32.5941 73.2462 32.973 73.2172 33.3555C73.1722 33.7379 73.1062 34.1044 73.0098 34.4594C72.8263 35.1903 72.4977 35.8357 72.035 36.3978C71.61 36.9512 70.9964 37.3938 70.1928 37.7205C69.4138 38.0689 68.4267 38.2485 67.2256 38.2609C66.0267 38.2768 64.7067 38.0175 63.2699 37.4858L63.5165 34.9534C64.0097 35.2069 64.5674 35.4279 65.1883 35.6249C65.8091 35.8422 66.3625 35.9494 66.8434 35.9653C67.6593 35.9472 68.3114 35.806 68.7966 35.5394C69.255 35.2584 69.5966 34.8976 69.8229 34.4616C70.0368 34.0233 70.1746 33.5373 70.2341 33.0128C70.2733 32.505 70.2936 32.0031 70.2936 31.5105H70.2341C69.9585 32.0125 69.5168 32.4391 68.9119 32.7738C68.2867 33.1461 67.5527 33.3315 66.6874 33.3315C65.012 33.3033 63.8233 32.7158 63.1139 31.5764C62.3778 30.487 62.0159 29.1476 62.0325 27.5678C62.0159 26.1176 62.3981 24.7725 63.1778 23.5476C63.9531 22.3205 65.1781 21.6809 66.8622 21.6389C68.3694 21.6265 69.5393 22.2365 70.3741 23.47H70.4133V21.9083L73.2593 21.896H73.2615L73.2607 21.8953Z" fill="#050130"/>
<path d="M76.246 21.8954H78.8883V24.4994H78.9318C79.0246 23.9055 79.3452 23.2919 79.9102 22.6603C80.4513 22.0091 81.1707 21.6679 82.0592 21.6404C82.3573 21.6404 82.6619 21.6686 82.9702 21.7259V24.724C82.6619 24.5646 82.2159 24.4828 81.6378 24.4828C81.0598 24.4828 80.5833 24.6443 80.2605 24.9732C79.9334 25.2818 79.6912 25.6881 79.5323 26.1988C79.3865 26.6667 79.2937 27.1687 79.2647 27.7048C79.2342 28.2205 79.2212 28.7029 79.2212 29.147V33.3367H76.246V21.8946V21.8954Z" fill="#050130"/>
<path d="M86.9006 30.0344C86.9006 30.5067 87.0877 30.8551 87.4576 31.0803C87.7948 31.3172 88.2409 31.4367 88.7899 31.4367C89.7089 31.4244 90.4023 31.0803 90.8708 30.4168C91.3045 29.7453 91.5141 28.9601 91.5003 28.0561H89.7016C89.5181 28.0561 89.3397 28.0699 89.1693 28.096C88.7783 28.138 88.4128 28.2314 88.0755 28.3589C87.7346 28.4965 87.4627 28.7015 87.2596 28.9688C87.0253 29.2318 86.902 29.5867 86.902 30.0351L86.9006 30.0344ZM85.3013 22.501C86.5785 21.9432 87.9044 21.652 89.2802 21.6383C92.605 21.5962 94.2543 23.1985 94.2042 26.4495V27.912C94.2042 29.0297 94.2209 29.9779 94.2557 30.7768C94.2869 31.6258 94.3275 32.474 94.3834 33.3346H91.7615C91.673 32.6414 91.6338 32.0677 91.6338 31.6251H91.5867C91.2371 32.2466 90.7395 32.7225 90.1063 33.0615C89.4507 33.4258 88.774 33.6055 88.0545 33.6055C87.0202 33.5917 86.1093 33.2969 85.3238 32.721C84.4955 32.143 84.0734 31.3006 84.0632 30.2031C84.0632 29.3448 84.254 28.6472 84.6348 28.1213C84.9923 27.5875 85.4514 27.197 86.0128 26.9399C86.6046 26.661 87.2342 26.4756 87.9022 26.3857C88.5789 26.3162 89.2302 26.2822 89.8474 26.2822H91.4989C91.4989 25.36 91.2915 24.7204 90.8693 24.3496C90.4545 23.9866 89.8104 23.8056 88.9205 23.8056C87.6193 23.8273 86.4473 24.2438 85.3963 25.0507L85.2998 22.5024L85.302 22.5002L85.3013 22.501Z" fill="#050130"/>
<path d="M100 16.6836H97.027V33.3338H100V16.6836Z" fill="#050130"/>
</g>
<defs>
<clipPath id="clip0_422_13866">
<rect width="100" height="50" fill="white"/>
</clipPath>
</defs>
</svg>
