<?xml version="1.0" encoding="UTF-8"?> <svg xmlns="http://www.w3.org/2000/svg" xmlns:xlink="http://www.w3.org/1999/xlink" width="195.317" height="58.991" viewBox="0 0 195.317 58.991"><defs><clipPath id="clip-path"><rect id="Rectangle_456" data-name="Rectangle 456" width="195.317" height="58.991" transform="translate(0 0)" fill="none"></rect></clipPath><clipPath id="clip-path-2"><rect id="Rectangle_455" data-name="Rectangle 455" width="45.693" height="45.693" transform="translate(0 13.298)" fill="none"></rect></clipPath><clipPath id="clip-path-3"><rect id="Rectangle_453" data-name="Rectangle 453" width="27.209" height="27.209" transform="translate(0 31.783)" fill="none"></rect></clipPath><clipPath id="clip-path-4"><rect id="Rectangle_454" data-name="Rectangle 454" width="18.004" height="18.004" transform="translate(0 40.987)" fill="none"></rect></clipPath></defs><g id="Group_796" data-name="Group 796" transform="translate(0 0)"><g id="Group_795" data-name="Group 795" clip-path="url(#clip-path)"><path id="Path_1481" data-name="Path 1481" d="M82.754,15.189a16.06,16.06,0,0,0-8.383-2.143,14.338,14.338,0,0,0-7.721,2.017,12.31,12.31,0,0,0-4,4.039V13.3H55.4V58.992h7.248V40.962a12.32,12.32,0,0,0,4,4.039A14.577,14.577,0,0,0,74.5,47.017a15.881,15.881,0,0,0,8.351-2.143,14.725,14.725,0,0,0,5.546-5.956,18.759,18.759,0,0,0,1.986-8.792,19,19,0,0,0-2.017-8.949,14.85,14.85,0,0,0-5.609-5.988m-.977,20.546a9.95,9.95,0,0,1-3.593,3.971,9.772,9.772,0,0,1-5.325,1.45,9.981,9.981,0,0,1-5.295-1.419,9.613,9.613,0,0,1-3.624-3.97,12.732,12.732,0,0,1-1.291-5.83A12.356,12.356,0,0,1,63.94,24.17a9.949,9.949,0,0,1,3.624-3.939,10.454,10.454,0,0,1,10.62,0A9.976,9.976,0,0,1,81.777,24.2a12.412,12.412,0,0,1,1.292,5.735,12.545,12.545,0,0,1-1.292,5.8" fill="#111827"></path><path id="Path_1482" data-name="Path 1482" d="M102.039,19.986V13.3H94.791V46.764h7.248V29.443a11.241,11.241,0,0,1,1.355-4.675,9.987,9.987,0,0,1,4.034-3.938,11.514,11.514,0,0,1,6.208-1.229V13.045a13.225,13.225,0,0,0-7.311,1.986,12.227,12.227,0,0,0-4.286,4.955" fill="#111827"></path><path id="Path_1483" data-name="Path 1483" d="M141.209,15.189a20.49,20.49,0,0,0-18.246,0,15.467,15.467,0,0,0-6.176,5.956A17.365,17.365,0,0,0,114.581,30a17.532,17.532,0,0,0,2.206,8.887,15.4,15.4,0,0,0,6.176,5.988,20.49,20.49,0,0,0,18.246,0,15.47,15.47,0,0,0,6.146-5.988A17.551,17.551,0,0,0,149.56,30a17.384,17.384,0,0,0-2.205-8.855,15.537,15.537,0,0,0-6.146-5.956m-.189,20.736a9.742,9.742,0,0,1-3.592,3.939,9.948,9.948,0,0,1-5.326,1.417,10.1,10.1,0,0,1-5.357-1.417,9.665,9.665,0,0,1-3.624-3.939,12.673,12.673,0,0,1-1.292-5.861,12.533,12.533,0,0,1,1.292-5.8,9.665,9.665,0,0,1,3.624-3.939,10.1,10.1,0,0,1,5.357-1.419,9.94,9.94,0,0,1,5.326,1.419,9.742,9.742,0,0,1,3.592,3.939,12.546,12.546,0,0,1,1.292,5.8,12.685,12.685,0,0,1-1.292,5.861" fill="#111827"></path><path id="Path_1484" data-name="Path 1484" d="M178.835,16.166q-3.5-3.12-9.99-3.121a27.023,27.023,0,0,0-5.577.505A21.6,21.6,0,0,0,158.824,15a38.91,38.91,0,0,0-4.411,2.4l2.962,4.664a22.274,22.274,0,0,1,5.01-2.585,14.588,14.588,0,0,1,4.885-.882q3.971,0,5.987,1.828a6.541,6.541,0,0,1,2.016,5.1l0,1.135h-10.15q-6.051.063-9.36,2.773a8.891,8.891,0,0,0-3.308,7.248,9.856,9.856,0,0,0,1.449,5.262,10.277,10.277,0,0,0,4.1,3.75,13.262,13.262,0,0,0,6.239,1.387,16.743,16.743,0,0,0,7.69-1.639,10.448,10.448,0,0,0,3.391-2.762l.012,4.085h7.122l-.063-22a11.116,11.116,0,0,0-3.561-8.6m-4.822,21.869a8.669,8.669,0,0,1-3.4,2.553,11.914,11.914,0,0,1-4.853.945A7.411,7.411,0,0,1,161,40.147a4.515,4.515,0,0,1-1.733-3.719,3.849,3.849,0,0,1,1.7-3.529,10.036,10.036,0,0,1,5.232-1.072h9.093l.009,2.917a6.025,6.025,0,0,1-1.288,3.291" fill="#111827"></path><rect id="Rectangle_452" data-name="Rectangle 452" width="7.248" height="46.765" transform="translate(188.069 -0.001)" fill="#111827"></rect><g id="Group_794" data-name="Group 794"><g id="Group_793" data-name="Group 793"><g id="Group_792" data-name="Group 792" clip-path="url(#clip-path-2)"><path id="Path_1485" data-name="Path 1485" d="M45.693,58.991H39.481V16.308H0V13.3H45.693Z" fill="#74886e"></path><path id="Path_1486" data-name="Path 1486" d="M36.451,58.991H30.239V25.55H0V22.54H36.451Z" fill="#656aa0"></path><g id="Group_788" data-name="Group 788"><g id="Group_787" data-name="Group 787"><g id="Group_786" data-name="Group 786" clip-path="url(#clip-path-3)"><path id="Path_1487" data-name="Path 1487" d="M27.209,58.991H21v-24.2H0V31.782H27.209Z" fill="#d8b178"></path></g></g></g><g id="Group_791" data-name="Group 791"><g id="Group_790" data-name="Group 790"><g id="Group_789" data-name="Group 789" clip-path="url(#clip-path-4)"><path id="Path_1488" data-name="Path 1488" d="M18,58.991H11.792V44H0v-3.01H18Z" fill="#9ea5ab"></path></g></g></g></g></g></g></g></g></svg> 